mtllib cone.mtl
v 0.000000 -1.000000 1.000000
v -0.195090 -1.000000 0.980785
v -0.382683 -1.000000 0.923880
v -0.555570 -1.000000 0.831470
v -0.707107 -1.000000 0.707107
v -0.831470 -1.000000 0.555570
v -0.923880 -1.000000 0.382683
v -0.980785 -1.000000 0.195090
v -1.000000 -1.000000 0.000000
v -0.980785 -1.000000 -0.195090
v -0.923880 -1.000000 -0.382683
v -0.831470 -1.000000 -0.555570
v -0.707107 -1.000000 -0.707107
v -0.555570 -1.000000 -0.831470
v -0.382683 -1.000000 -0.923880
v -0.195090 -1.000000 -0.980785
v 0.000000 -1.000000 -1.000000
v 0.195091 -1.000000 -0.980785
v 0.382684 -1.000000 -0.923879
v 0.555571 -1.000000 -0.831469
v 0.707107 -1.000000 -0.707106
v 0.831470 -1.000000 -0.555570
v 0.923880 -1.000000 -0.382683
v 0.000000 1.000000 0.000000
v 0.980785 -1.000000 -0.195089
v 1.000000 -1.000000 0.000001
v 0.980785 -1.000000 0.195091
v 0.923879 -1.000000 0.382684
v 0.831469 -1.000000 0.555571
v 0.707106 -1.000000 0.707108
v 0.555569 -1.000000 0.831470
v 0.382682 -1.000000 0.923880
v 0.195089 -1.000000 0.980786
vt 0.000000 0.000000
vt 1.000000 0.000000
vt 1.000000 1.000000
vt 0.000000 0.000000
vt 1.000000 1.000000
vt 0.000000 0.000000
vt 1.000000 1.000000
vt 0.000000 0.000000
vt 1.000000 1.000000
vt 0.000000 0.000000
vt 1.000000 1.000000
vt 0.000000 0.000000
vt 1.000000 1.000000
vt 0.000000 0.000000
vt 1.000000 1.000000
vt 0.000000 0.000000
vt 1.000000 1.000000
vt 0.000000 0.000000
vt 1.000000 1.000000
vt 0.000000 0.000000
vt 1.000000 1.000000
vt 0.000000 0.000000
vt 1.000000 1.000000
vt 0.000000 0.000000
vt 1.000000 1.000000
vt 0.000000 0.000000
vt 1.000000 1.000000
vt 0.000000 0.000000
vt 1.000000 1.000000
vt 0.000000 0.000000
vt 1.000000 1.000000
vt 0.000000 0.000000
vt 1.000000 1.000000
vt 0.000000 0.000000
vt 1.000000 1.000000
vt 0.000000 0.000000
vt 1.000000 1.000000
vt 0.000000 0.000000
vt 1.000000 1.000000
vt 0.000000 0.000000
vt 1.000000 1.000000
vt 0.000000 0.000000
vt 1.000000 1.000000
vt 0.000000 0.000000
vt 1.000000 1.000000
vt 0.000000 0.000000
vt 1.000000 1.000000
vt 0.000000 0.000000
vt 1.000000 1.000000
vt 0.000000 0.000000
vt 1.000000 1.000000
vt 0.000000 0.000000
vt 1.000000 1.000000
vt 0.000000 0.000000
vt 1.000000 1.000000
vt 0.000000 0.000000
vt 1.000000 1.000000
vt 0.000000 0.000000
vt 1.000000 1.000000
vt 0.000000 0.000000
vt 1.000000 1.000000
vt 0.000000 0.000000
vt 1.000000 1.000000
vt 0.000000 0.000000
vt 1.000000 1.000000
vt 0.527504 0.752033
vt 0.336580 0.466296
vt 0.050843 0.657219
vt 0.241767 0.942956
vt 0.289173 0.947625
vt 0.336580 0.942956
vt 0.382165 0.929128
vt 0.424177 0.906672
vt 0.461000 0.876452
vt 0.491220 0.839629
vt 0.513675 0.797618
vt 0.532173 0.704626
vt 0.527504 0.657219
vt 0.513676 0.611634
vt 0.491220 0.569623
vt 0.461000 0.532799
vt 0.424176 0.502579
vt 0.382165 0.480124
vt 0.289173 0.461626
vt 0.241766 0.466296
vt 0.196181 0.480124
vt 0.154170 0.502579
vt 0.117347 0.532800
vt 0.087127 0.569623
vt 0.064671 0.611634
vt 0.046174 0.704626
vt 0.050843 0.752033
vt 0.064671 0.797618
vt 0.087127 0.839629
vt 0.117347 0.876453
vt 0.154170 0.906673
vt 0.196182 0.929128
vn 0.0000 -0.5033 0.8641
vn 0.0000 1.0000 0.0000
vn -0.1686 -0.5033 0.8475
vn -0.3307 -0.5033 0.7983
vn -0.4801 -0.5033 0.7185
vn -0.6110 -0.5033 0.6110
vn -0.7185 -0.5033 0.4801
vn -0.7983 -0.5033 0.3307
vn -0.8475 -0.5033 0.1686
vn -0.8641 -0.5033 0.0000
vn -0.8475 -0.5033 -0.1686
vn -0.7983 -0.5033 -0.3307
vn -0.7185 -0.5033 -0.4801
vn -0.6110 -0.5033 -0.6110
vn -0.4801 -0.5033 -0.7185
vn -0.3307 -0.5033 -0.7983
vn -0.1686 -0.5033 -0.8475
vn 0.0000 -0.5033 -0.8641
vn 0.1686 -0.5033 -0.8475
vn 0.3307 -0.5033 -0.7983
vn 0.4801 -0.5033 -0.7185
vn 0.6110 -0.5033 -0.6110
vn 0.7185 -0.5033 -0.4801
vn 0.7983 -0.5033 -0.3307
vn 0.8475 -0.5033 -0.1686
vn 0.8641 -0.5033 0.0000
vn 0.8475 -0.5033 0.1686
vn 0.7983 -0.5033 0.3307
vn 0.7185 -0.5033 0.4801
vn 0.6110 -0.5033 0.6110
vn 0.4801 -0.5033 0.7185
vn 0.3307 -0.5033 0.7983
vn 0.1686 -0.5033 0.8475
vn 0.0000 -1.0000 0.0000
usemtl None
s 1
f 1/1/1 24/2/2 2/3/3
f 2/4/3 24/2/2 3/5/4
f 3/6/4 24/2/2 4/7/5
f 4/8/5 24/2/2 5/9/6
f 5/10/6 24/2/2 6/11/7
f 6/12/7 24/2/2 7/13/8
f 7/14/8 24/2/2 8/15/9
f 8/16/9 24/2/2 9/17/10
f 9/18/10 24/2/2 10/19/11
f 10/20/11 24/2/2 11/21/12
f 11/22/12 24/2/2 12/23/13
f 12/24/13 24/2/2 13/25/14
f 13/26/14 24/2/2 14/27/15
f 14/28/15 24/2/2 15/29/16
f 15/30/16 24/2/2 16/31/17
f 16/32/17 24/2/2 17/33/18
f 17/34/18 24/2/2 18/35/19
f 18/36/19 24/2/2 19/37/20
f 19/38/20 24/2/2 20/39/21
f 20/40/21 24/2/2 21/41/22
f 21/42/22 24/2/2 22/43/23
f 22/44/23 24/2/2 23/45/24
f 23/46/24 24/2/2 25/47/25
f 25/48/25 24/2/2 26/49/26
f 26/50/26 24/2/2 27/51/27
f 27/52/27 24/2/2 28/53/28
f 28/54/28 24/2/2 29/55/29
f 29/56/29 24/2/2 30/57/30
f 30/58/30 24/2/2 31/59/31
f 31/60/31 24/2/2 32/61/32
f 32/62/32 24/2/2 33/63/33
f 33/64/33 24/2/2 1/65/1
s off
f 8/66/34 16/67/34 25/68/34
f 33/69/34 1/70/34 2/71/34
f 2/71/34 3/72/34 4/73/34
f 4/73/34 5/74/34 6/75/34
f 6/75/34 7/76/34 4/73/34
f 7/76/34 8/66/34 4/73/34
f 8/66/34 9/77/34 10/78/34
f 10/78/34 11/79/34 8/66/34
f 11/79/34 12/80/34 8/66/34
f 12/80/34 13/81/34 16/67/34
f 13/81/34 14/82/34 16/67/34
f 14/82/34 15/83/34 16/67/34
f 16/67/34 17/84/34 18/85/34
f 18/85/34 19/86/34 20/87/34
f 20/87/34 21/88/34 22/89/34
f 22/89/34 23/90/34 25/68/34
f 25/68/34 26/91/34 27/92/34
f 27/92/34 28/93/34 29/94/34
f 29/94/34 30/95/34 33/69/34
f 30/95/34 31/96/34 33/69/34
f 31/96/34 32/97/34 33/69/34
f 33/69/34 2/71/34 4/73/34
f 16/67/34 18/85/34 25/68/34
f 18/85/34 20/87/34 25/68/34
f 20/87/34 22/89/34 25/68/34
f 25/68/34 27/92/34 33/69/34
f 27/92/34 29/94/34 33/69/34
f 33/69/34 4/73/34 8/66/34
f 8/66/34 12/80/34 16/67/34
f 33/69/34 8/66/34 25/68/34
